<?xml version="1.0" encoding="iso-8859-1"?>
<!-- Generator: Adobe Illustrator 19.0.0, SVG Export Plug-In . SVG Version: 6.00 Build 0)  -->
<svg version="1.1" id="Layer_1" xmlns="http://www.w3.org/2000/svg" xmlns:xlink="http://www.w3.org/1999/xlink" x="0px" y="0px"
	 viewBox="0 0 512 512" style="enable-background:new 0 0 512 512;" xml:space="preserve">
<path style="fill:#E5E5E5;" d="M256,0C114.616,0,0,114.616,0,256s114.616,256,256,256s256-114.616,256-256S397.384,0,256,0z"/>
<polygon points="151.496,184.376 144.24,176.104 257.936,76.4 367.672,176.176 360.288,184.312 257.808,91.136 "/>
<circle cx="257.84" cy="92.352" r="25.768"/>
<rect x="80" y="169.84" style="fill:#F00000;" width="352" height="211.568"/>
<g>
	<path style="fill:#FFFFFF;" d="M137.944,206.536h46.584v12.088H152.68v22.28h29.688v12.088H152.68v34.248h-14.744v-80.704H137.944z
		"/>
	<path style="fill:#FFFFFF;" d="M195.848,207.616c5.52-0.96,13.768-1.68,22.28-1.68c11.616,0,19.52,1.912,24.904,6.464
		c4.424,3.72,6.936,9.344,6.936,16.176c0,10.408-7.064,17.488-14.6,20.232v0.368c5.752,2.144,9.224,7.776,11.256,15.56
		c2.512,10.056,4.672,19.4,6.352,22.512h-15.224c-1.184-2.392-3.112-8.976-5.384-19.048c-2.28-10.536-6.104-13.896-14.496-14.128
		h-7.416v33.168H195.84L195.848,207.616L195.848,207.616z M210.472,243.304h8.744c9.928,0,16.16-5.272,16.16-13.296
		c0-8.864-6.232-12.936-15.808-12.936c-4.672,0-7.664,0.368-9.096,0.728C210.472,217.8,210.472,243.304,210.472,243.304z"/>
	<path style="fill:#FFFFFF;" d="M309.088,251.44H278.68v23.72h34v12.088h-48.744v-80.712h46.944v12.088h-32.2v20.848h30.408V251.44z
		"/>
	<path style="fill:#FFFFFF;" d="M370.696,251.44h-30.408v23.72h34v12.088h-48.744v-80.712h46.944v12.088h-32.2v20.848h30.408V251.44
		z"/>
	<path style="fill:#FFFFFF;" d="M139.096,336.944c2.328,1.344,5.816,2.496,9.472,2.496c4.584,0,7.144-2.144,7.144-5.336
		c0-2.96-1.976-4.704-6.968-6.504c-6.448-2.312-10.56-5.752-10.56-11.384c0-6.384,5.336-11.256,13.816-11.256
		c4.24,0,7.368,0.928,9.408,1.976l-1.744,5.736c-1.384-0.752-4.12-1.848-7.784-1.848c-4.52,0-6.496,2.44-6.496,4.704
		c0,3.024,2.264,4.408,7.496,6.448c6.784,2.56,10.104,5.984,10.104,11.616c0,6.28-4.768,11.736-14.864,11.736
		c-4.136,0-8.416-1.168-10.576-2.44L139.096,336.944z"/>
	<path style="fill:#FFFFFF;" d="M176.544,305.592v15.68h16.544v-15.68h7.144v39.136h-7.144v-17.24h-16.544v17.24h-7.152v-39.136
		C169.392,305.592,176.544,305.592,176.544,305.592z"/>
	<path style="fill:#FFFFFF;" d="M215.528,305.592v39.136h-7.152v-39.136C208.376,305.592,215.528,305.592,215.528,305.592z"/>
	<path style="fill:#FFFFFF;" d="M223.704,306.12c2.56-0.464,6.104-0.816,10.92-0.816c5.224,0,9.064,1.112,11.568,3.192
		c2.312,1.928,3.824,5,3.824,8.648c0,3.72-1.16,6.8-3.36,8.88c-2.856,2.856-7.328,4.192-12.368,4.192
		c-1.344,0-2.56-0.064-3.488-0.232v14.744h-7.096V306.12z M230.792,324.344c0.864,0.232,2.032,0.296,3.488,0.296
		c5.336,0,8.592-2.608,8.592-7.2c0-4.352-3.024-6.68-7.96-6.68c-1.976,0-3.36,0.168-4.12,0.352V324.344z"/>
	<path style="fill:#FFFFFF;" d="M256.128,306.12c2.56-0.464,6.104-0.816,10.92-0.816c5.224,0,9.064,1.112,11.568,3.192
		c2.312,1.928,3.824,5,3.824,8.648c0,3.72-1.16,6.8-3.36,8.88c-2.856,2.856-7.328,4.192-12.368,4.192
		c-1.344,0-2.56-0.064-3.488-0.232v14.744h-7.096V306.12z M263.224,324.344c0.864,0.232,2.032,0.296,3.488,0.296
		c5.336,0,8.592-2.608,8.592-7.2c0-4.352-3.024-6.68-7.96-6.68c-1.976,0-3.36,0.168-4.12,0.352
		C263.224,311.112,263.224,324.344,263.224,324.344z"/>
	<path style="fill:#FFFFFF;" d="M295.72,305.592v39.136h-7.16v-39.136C288.56,305.592,295.72,305.592,295.72,305.592z"/>
	<path style="fill:#FFFFFF;" d="M303.888,344.728v-39.136h8.144l10.104,16.776c2.608,4.368,4.872,8.88,6.68,13.12h0.104
		c-0.464-5.224-0.632-10.272-0.632-16.256v-13.648h6.616v39.136h-7.368l-10.224-17.192c-2.496-4.288-5.104-9.112-7.016-13.528
		l-0.184,0.064c0.296,5.04,0.352,10.208,0.352,16.656v14L303.888,344.728L303.888,344.728z"/>
	<path style="fill:#FFFFFF;" d="M374.472,342.928c-2.496,0.944-7.368,2.208-12.6,2.208c-6.632,0-11.616-1.68-15.328-5.224
		c-3.488-3.304-5.52-8.464-5.456-14.392c0-12.368,8.824-20.328,21.776-20.328c4.808,0,8.592,0.984,10.392,1.848l-1.576,5.752
		c-2.144-0.928-4.768-1.68-8.88-1.68c-8.36,0-14.232,4.936-14.232,14.048c0,8.88,5.456,14.176,13.584,14.176
		c2.56,0,4.472-0.352,5.416-0.816v-9.76h-6.912v-5.632h13.816V342.928z"/>
</g>
<g>
</g>
<g>
</g>
<g>
</g>
<g>
</g>
<g>
</g>
<g>
</g>
<g>
</g>
<g>
</g>
<g>
</g>
<g>
</g>
<g>
</g>
<g>
</g>
<g>
</g>
<g>
</g>
<g>
</g>
</svg>
