<svg width="42" height="27" viewBox="0 0 42 27" fill="none" xmlns="http://www.w3.org/2000/svg">
<path d="M26.2397 13.373C26.2397 20.6226 20.3669 26.4968 13.1199 26.4968C5.87284 26.4968 0 20.6213 0 13.373C0 6.1247 5.87428 0.249268 13.1199 0.249268C20.3655 0.249268 26.2397 6.1247 26.2397 13.373Z" fill="#E2574C"/>
<path d="M28.876 0.249268C25.9337 0.249268 23.2249 1.22963 21.0359 2.86622L21.0464 2.86751C21.4769 3.28349 21.9519 3.57627 22.3181 4.05515L19.5883 4.09848C19.1605 4.53029 18.7707 5.00011 18.4032 5.48835H23.217C23.5831 5.92794 23.9217 6.30995 24.2288 6.79545H17.5305C17.2851 7.21806 17.0581 7.65247 16.8599 8.10386H24.9914C25.204 8.55395 25.3943 8.89394 25.5558 9.37037H16.3783C16.2326 9.8232 16.108 10.2864 16.0134 10.7588H25.9403C26.0374 11.2129 26.1121 11.6328 26.1634 12.0607H15.8165C15.7732 12.4925 15.7509 12.9308 15.7509 13.3732H26.2381C26.2381 13.8378 26.2053 14.2682 26.1581 14.6856H15.8165C15.8611 15.1305 15.9267 15.5675 16.0134 15.998H25.9244C25.8221 16.4232 25.7039 16.851 25.5557 17.2946H16.3481C16.4871 17.7434 16.6565 18.1791 16.8415 18.6043H24.9914C24.7657 19.0821 24.5098 19.4639 24.2277 19.9114H17.507C17.7722 20.3707 18.0648 20.809 18.3823 21.229L23.2171 21.3012C22.805 21.7959 22.2762 22.0938 21.7944 22.5269C21.8206 22.548 21.024 22.5244 19.4557 22.4995C21.8416 24.9615 25.1764 26.4969 28.8759 26.4969C36.1242 26.4969 41.9996 20.6213 41.9996 13.3732C41.9996 6.12499 36.1255 0.249268 28.876 0.249268Z" fill="#F4B459"/>
</svg>
