<svg width="62" height="40" viewBox="0 0 62 40" fill="none" xmlns="http://www.w3.org/2000/svg">
<path d="M0.435303 4C0.435303 1.79086 2.22616 0 4.4353 0H57.5177C59.7268 0 61.5177 1.79086 61.5177 4V36C61.5177 38.2091 59.7268 40 57.5177 40H4.4353C2.22616 40 0.435303 38.2091 0.435303 36V4Z" fill="#3A494E"/>
<path d="M22.1765 26.12L23.9495 28L31.4941 20L23.9495 12L22.1765 13.88L27.9356 20L22.1765 26.12Z" fill="white"/>
<path d="M29.4236 26.12L31.1966 28L38.7412 20L31.1966 12L29.4236 13.88L35.1826 20L29.4236 26.12Z" fill="white"/>
</svg>
