<?xml version="1.0" encoding="iso-8859-1"?>
<!-- Generator: Adobe Illustrator 18.1.1, SVG Export Plug-In . SVG Version: 6.00 Build 0)  -->
<svg version="1.1" id="Capa_1" xmlns="http://www.w3.org/2000/svg" xmlns:xlink="http://www.w3.org/1999/xlink" x="0px" y="0px"
	 viewBox="0 0 19.928 19.928" style="enable-background:new 0 0 19.928 19.928;" xml:space="preserve">
<g>
	<path style="fill:#010002;" d="M11.273,3.18l-0.242-0.766c-0.096-0.305-0.228-0.603-0.393-0.884
		c-0.545-0.926-1.18-1.328-1.425-1.352C9.122,0.373,9.136,1.12,9.701,2.081c0.538,0.916,1.165,1.318,1.417,1.351
		C11.118,3.432,11.273,3.18,11.273,3.18z M13.731,2.081c0.564-0.961,0.578-1.708,0.488-1.903c-0.245,0.023-0.882,0.424-1.427,1.352
		c-0.166,0.282-0.297,0.58-0.393,0.884L12.154,3.19l0.163,0.252C12.549,3.411,13.185,3.01,13.731,2.081z M11.381,3.927h2.02v2.818
		h4.908V3.958H13.7c0.372-0.273,0.75-0.698,1.061-1.225c0.67-1.142,0.768-2.328,0.217-2.651C14.883,0.027,14.776,0,14.66,0
		c-0.561,0-1.335,0.617-1.893,1.562c-0.186,0.319-0.324,0.639-0.42,0.945c-0.096-0.306-0.232-0.626-0.42-0.945
		C11.372,0.617,10.595,0,10.033,0C9.92,0,9.812,0.027,9.716,0.082c-0.548,0.323-0.45,1.509,0.219,2.651
		c0.311,0.527,0.691,0.952,1.062,1.225h-4.61v2.787h4.994V3.927z M12.974,2.705c0.087-0.278,0.208-0.55,0.359-0.81
		c0.498-0.849,1.082-1.216,1.309-1.237c0.08,0.177,0.068,0.862-0.447,1.741c-0.502,0.852-1.084,1.218-1.295,1.246l-0.15-0.23
		C12.75,3.415,12.974,2.705,12.974,2.705z M10.502,2.399c-0.516-0.879-0.53-1.564-0.446-1.741c0.224,0.021,0.807,0.389,1.306,1.237
		c0.152,0.257,0.271,0.529,0.361,0.81l0.22,0.701l-0.142,0.23C11.569,3.607,10.996,3.238,10.502,2.399z M13.568,7.636v3.146
		c0.364,0.184,0.465,0.516,0.465,0.516s0.072-0.034,0.072,1.479c0,1.514-0.324,1.568-0.537,1.616v0.824c0,0,2.462-0.796,3.928-2.65
		c0.532-0.673,0.822-0.505,0.822-0.505l-0.01-4.426C18.308,7.636,13.568,7.636,13.568,7.636z M11.381,7.636H6.386v2.572
		c1.209,0,3.428,0,4.994,0V7.636H11.381z M0.028,10.264h2.855v9.663H0.028V10.264z M18.054,13.379
		c-0.113-0.044-0.23-0.061-0.349-0.041c-0.897,0.165-2.255,3.501-5.789,2.538c0,0-1.034-0.334-1.425-0.574
		c-0.346-0.191-1.08-0.628-1.68-1.084h1.68h1.889c0,0,0.146,0.009,0.315-0.029c0.231-0.053,0.508-0.194,0.508-0.576
		c0-0.66,0-1.647,0-1.647s-0.11-0.548-0.508-0.749c-0.091-0.046-0.194-0.075-0.315-0.075c-0.186,0-0.924,0-1.889,0
		c-1.711,0-4.133,0-5.453,0c-0.581,0-0.949,0-0.949,0v7.026c0,0,5.602,1.758,7.578,1.758c0,0,4.939,0.22,8.234-3.624
		C19.902,16.303,19.043,13.763,18.054,13.379z"/>
</g>
<g>
</g>
<g>
</g>
<g>
</g>
<g>
</g>
<g>
</g>
<g>
</g>
<g>
</g>
<g>
</g>
<g>
</g>
<g>
</g>
<g>
</g>
<g>
</g>
<g>
</g>
<g>
</g>
<g>
</g>
</svg>
