<svg width="74" height="23" viewBox="0 0 74 23" fill="none" xmlns="http://www.w3.org/2000/svg">
<path d="M29.9098 0L26.2375 22.8529H32.1073L35.7774 0H29.9098ZM47.6155 9.309C45.5642 8.29604 44.3067 7.61238 44.3067 6.57634C44.3318 5.63436 45.3701 4.6693 47.6887 4.6693C49.5957 4.6214 50.9974 5.06957 52.0608 5.51548L52.5935 5.75323L53.3915 0.97183C52.2321 0.52366 50.3938 0.0298435 48.1231 0.0298435C42.3265 0.0298435 38.2448 3.04364 38.2194 7.35405C38.1715 10.5349 41.1417 12.3 43.3645 13.3588C45.6352 14.445 46.4081 15.1493 46.4081 16.1143C46.3831 17.596 44.5721 18.2797 42.8822 18.2797C40.5408 18.2797 39.2831 17.9276 37.3738 17.1019L36.6008 16.7498L35.7799 21.7188C37.1588 22.3318 39.6946 22.8712 42.3267 22.8988C48.487 22.8988 52.4954 19.9307 52.5458 15.3369C52.5659 12.8169 50.9997 10.8868 47.6155 9.309ZM68.44 0.0707236H63.8986C62.4991 0.0707236 61.4358 0.47325 60.8298 1.9093L52.1107 22.8529H58.271L59.9676 18.3186H66.8597L67.74 22.8712H73.1732L68.44 0.0707236ZM61.676 13.7426C61.7949 13.7541 64.0405 6.34059 64.0405 6.34059L65.8287 13.7426C65.8287 13.7426 62.8355 13.7426 61.676 13.7426ZM21.3327 0L15.5817 15.5265L14.9552 12.4645C13.8918 8.93155 10.558 5.09239 6.83746 3.18534L12.1037 22.8301H18.3143L27.5433 0.00250657H21.3327V0Z" fill="#2394BC"/>
<path d="M13.0203 2.94637C12.5721 1.20384 11.1428 0.0286195 9.20166 0.00354004H0.0937973L0 0.42638C7.10477 2.17793 13.0682 7.56751 15.0028 12.6371L13.0203 2.94637Z" fill="#EFC75E"/>
</svg>
